<svg version="1.1" id="Layer_1" xmlns="http://www.w3.org/2000/svg" xmlns:xlink="http://www.w3.org/1999/xlink" x="0px" y="0px" viewBox="0 0 512 512" enable-background="new 0 0 512 512" xml:space="preserve">
<g>
	<path fill-rule="evenodd" clip-rule="evenodd" fill="#00A78D" d="M153.8,414.1c0,0-47.7,9.2-78.7-12.2   c-31-21.4-39.3-33.6-39.3-33.6c29.7,14.4,41.9,7.9,78.6,23.6c-12.4-23.1-10.8-39.3-16.1-59C116.7,360,139.6,373.1,153.8,414.1"/>
	<path fill-rule="evenodd" clip-rule="evenodd" fill="#00A78D" d="M98.3,377c0,0-48-7.1-70.2-37.5c-22.2-30.4-26-44.7-26-44.7   c23.3,23.4,37,21.3,66.4,48.3c-4-26,2.8-40.7,4.2-61C81.3,313.6,98.5,333.6,98.3,377"/>
	<path fill-rule="evenodd" clip-rule="evenodd" fill="#00A78D" d="M55.8,323.2c0,0-36.1-17.2-46.2-46.7C-0.5,247.1,0,234.9,0,234.9   c12.6,24.1,24,25.8,40.7,54.2c3.1-21.4,12.1-31.4,18.2-47.1C57.9,269.1,66.6,289,55.8,323.2"/>
	<path fill-rule="evenodd" clip-rule="evenodd" fill="#00A78D" d="M33,262.1c0,0-28.9-27.7-29.2-58.8c-0.4-31.1,3.9-42.6,3.9-42.6   c4.5,26.9,14.7,32,21.6,64.3c9.7-19.4,21.3-26,32-39C51.8,211.3,53.9,233,33,262.1"/>
	<path fill-rule="evenodd" clip-rule="evenodd" fill="#00A78D" d="M31.9,199.7c0,0-20.7-29.4-15.6-56.9   c5.1-27.5,10.8-36.9,10.8-36.9c-0.7,24.5,7.5,30.8,7.9,60.4c11.9-15.4,23.3-19.3,35-28.9C57.3,158.2,55.4,177.7,31.9,199.7"/>
	<path fill-rule="evenodd" clip-rule="evenodd" fill="#00A78D" d="M59.3,57.6c0,0-19.2,23.2-21,40.6c-1.7,17.4-1.3,45.4-1.3,45.4   s17-9.6,30.6-20.5c13.5-10.9,20.1-31.4,20.1-31.4L71.6,96c0,0,15.7-14.9,22.3-22.3c6.6-7.4,17.9-36.3,17.9-36.3S76,56.3,65.5,74.2   C55,92.1,57.2,94.7,57.2,94.7S55,71.6,59.3,57.6"/>
	<path fill-rule="evenodd" clip-rule="evenodd" fill="#00A78D" d="M172.7,437.1c-14.9,6.1-42,13.5-64.7,8.3   c-22.7-5.2-36.7-19.6-36.7-19.6s55.7,9.8,69-0.9c13.3-10.7,51.6-10.9,72.1-6.6c20.6,4.4,64.3,14.8,83.5,30.6   c19.2,15.7,29,24.3,29,24.3s-3.3,1.7-8.7,1.3c-5.5-0.5-8.8-8.1-17.3-16.2C267.1,428,212.9,420.5,172.7,437.1"/>
	<path fill-rule="evenodd" clip-rule="evenodd" fill="#00A78D" d="M358.3,414.1c0,0,47.6,9.2,78.7-12.2c31-21.4,39.3-33.6,39.3-33.6   c-29.7,14.4-42,7.9-78.6,23.6c12.4-23.1,10.8-39.3,16.2-59C395.3,360,372.4,373.1,358.3,414.1"/>
	<path fill-rule="evenodd" clip-rule="evenodd" fill="#00A78D" d="M413.8,377c0,0,48-7.1,70.2-37.5c22.2-30.4,26-44.7,26-44.7   c-23.3,23.4-37,21.3-66.4,48.3c4-26-2.8-40.7-4.2-61C430.8,313.6,413.5,333.6,413.8,377"/>
	<path fill-rule="evenodd" clip-rule="evenodd" fill="#00A78D" d="M456.2,323.2c0,0,36.1-17.2,46.2-46.7   c10.1-29.5,9.6-41.6,9.6-41.6c-12.6,24.1-24,25.8-40.6,54.2c-3.2-21.4-12.2-31.4-18.2-47.1C454.2,269.1,445.4,289,456.2,323.2"/>
	<path fill-rule="evenodd" clip-rule="evenodd" fill="#00A78D" d="M479.1,262.1c0,0,28.9-27.7,29.2-58.8c0.3-31.1-3.9-42.6-3.9-42.6   c-4.5,26.9-14.7,32-21.6,64.3c-9.7-19.4-21.4-26-32-39C460.2,211.3,458.1,233,479.1,262.1"/>
	<path fill-rule="evenodd" clip-rule="evenodd" fill="#00A78D" d="M480.1,199.7c0,0,20.7-29.4,15.6-56.9   c-5-27.5-10.8-36.9-10.8-36.9c0.7,24.5-7.4,30.8-7.9,60.4c-11.9-15.4-23.3-19.3-35-28.9C454.7,158.2,456.6,177.7,480.1,199.7"/>
	<path fill-rule="evenodd" clip-rule="evenodd" fill="#00A78D" d="M452.6,57.6c0,0,19.2,23.2,21,40.6c1.7,17.4,1.3,45.4,1.3,45.4   s-17-9.6-30.6-20.5c-13.5-10.9-20.1-31.4-20.1-31.4l16.2,4.3c0,0-15.8-14.9-22.3-22.3c-6.5-7.4-17.9-36.3-17.9-36.3   s35.8,18.8,46.3,36.7c10.5,17.9,8.3,20.5,8.3,20.5S457,71.6,452.6,57.6"/>
	<path fill-rule="evenodd" clip-rule="evenodd" fill="#00A78D" d="M339.3,437.1c14.8,6.1,42,13.5,64.7,8.3   c22.7-5.2,36.7-19.6,36.7-19.6s-55.7,9.8-69-0.9c-13.3-10.7-51.5-10.9-72.1-6.6c-20.5,4.4-64.2,14.8-83.5,30.6   c-19.2,15.7-29,24.3-29,24.3s3.3,1.7,8.7,1.3c5.5-0.5,8.8-8.1,17.3-16.2C244.9,428,299.1,420.5,339.3,437.1"/>
	<path fill-rule="evenodd" clip-rule="evenodd" fill="#00ADEE" d="M291.6,101.1l10.8-29.5c-13.9,1.5-27.4,4.8-40.3,9.6   C270.4,89.5,280.3,96.3,291.6,101.1 M268.5,164.3l18.9-51.6c-14.7-6.1-27.3-15.2-37.4-26.3l0,0c-17,7.9-32.7,18.6-46.3,31.8   C220.8,137.9,242.7,154,268.5,164.3z M298.9,116.8L280,168.4c26,8.5,52.7,10.2,78.1,6.2c-1.9-18.9-7-37.2-14.9-54.2l0,0   C328.7,122.3,313.7,121.2,298.9,116.8z M313.6,76.5l-10.5,28.8c11.4,3.3,22.9,4.5,34.2,3.5C330.7,97.2,322.8,86.3,313.6,76.5z    M163.2,180.2c0.4-1,0.8-2.1,1.2-3.1l0,0c7.4-18.9,18-35.7,30.8-50c18.3,20.9,41.7,37.8,69.2,48.6L251,212.3L163.2,180.2z    M350.2,245L350.2,245c-0.4,1.1-0.7,2.1-1.1,3.2l-86.7-31.7l13.4-36.6c27.7,9.1,56,11.1,83.1,7C359.5,206.1,356.7,225.8,350.2,245z    M236.7,251.5l10.2-27.7l-87.6-32c-5.1,17.4-7.3,35-6.8,52.3C179.9,239.9,208.7,242.1,236.7,251.5z M213.7,314.6l18.8-51.6   c-26.4-8.7-53.5-10.7-79.3-6.6c1.9,18.9,7,37.2,14.9,54.1l0,0.1C183,308.6,198.5,309.8,213.7,314.6z M198.7,355.5l10.8-29.4   c-11.8-3.6-23.7-4.8-35.4-3.9C180.9,334.2,189.1,345.4,198.7,355.5z M220.9,330.3l-10.5,28.8c13.3-1.6,26.4-4.8,38.9-9.5   C241.3,341.7,231.7,335.1,220.9,330.3z M243.9,267.2l-18.8,51.6c14.2,6,26.4,15,36.3,25.8l0,0c17-7.9,32.7-18.6,46.3-31.8   C290.8,293.3,269.3,277.5,243.9,267.2z M344.7,259.5L258.3,228l-10.2,27.8c27,10.9,50,27.6,68.1,48.3   C327.7,291.1,337.4,276.1,344.7,259.5z M243,54.1c18.8-1.5,38,0.2,57.1,5.6c-16.1,1.9-31.7,5.9-46.6,11.9   c-4.1-5.4-7.6-11.3-10.5-17.4L243,54.1z M176.2,74.5c16.7-9.4,35.1-15.8,54.1-18.9c0.5,1.2,1.1,2.5,1.7,3.7   c2.8,6.1,6.2,11.9,10.1,17.3c-16.8,8.2-32.4,19-46.1,32.1c-7-9.3-13-19.3-17.9-29.9C177.5,77.4,176.8,75.9,176.2,74.5z    M103.9,158.6c12.5-32.9,34.6-59.4,61.8-77.7c0.5,1,0.9,2,1.4,3c5.5,11.9,12.3,23.1,20.2,33.6c-15.1,16.6-27.4,36.3-35.6,58.5   L103.9,158.6z M99.4,260.8c-8.2-28.8-8.5-60.1,0.5-90.7l47.9,17.5c-5.9,19.5-8.3,39.3-7.5,58.8c-12.8,2.8-25.3,7-37.1,12.6   C101.9,259.6,100.7,260.2,99.4,260.8z M132.1,322c-12.5-14.7-22.3-31.5-28.9-49.4c1.7-0.9,3.4-1.7,5.1-2.5   c10.5-4.9,21.5-8.7,32.9-11.3c2,18.8,7,37.1,14.6,54.2c-6.5,1.6-12.8,3.9-18.9,6.7C135.3,320.4,133.7,321.2,132.1,322z    M191.8,365.9c-19.6-8.4-36.8-20.3-51.1-34.6c0.5-0.2,0.9-0.4,1.3-0.6c6.1-2.8,12.6-5.1,19.2-6.6   C169.3,339.4,179.6,353.5,191.8,365.9z M269.2,378.7c-20.3,1.6-41.2-0.5-61.7-6.9c17.4-1.7,34.4-5.8,50.4-12.3   c4.1,5.4,7.6,11.3,10.5,17.4C268.6,377.4,268.9,378,269.2,378.7z M335.9,358.2c-16.7,9.4-35,15.9-54.1,18.9   c-0.8-1.9-1.5-3.6-2.3-5.4c-2.8-6-6.2-11.8-10.1-17.3c16.8-8.2,32.4-18.9,46.1-32c7,9.3,13,19.3,17.8,29.9   C334.1,354.2,335,356.2,335.9,358.2z M405.1,281.6c-12.9,29.4-33.6,53.4-58.8,70.2c-0.7-1.6-1.4-3.2-2.1-4.7   c-5.5-11.8-12.3-23.1-20.3-33.5c13.1-14.4,24.1-31.1,32.1-49.8L405.1,281.6z M412.1,170.1c9.4,31.7,9.3,66.6-2.5,100.1l-49-17.9   c8-22.4,11.3-45.3,10.5-67.7c12.8-2.8,25.3-7.1,37.1-12.6C409.5,171.4,410.8,170.8,412.1,170.1z M378.6,109.3   c12.7,14.6,22.7,31.2,29.5,49.2c-1.7,0.8-3.4,1.6-5.1,2.4c-10.5,4.9-21.5,8.7-32.9,11.3c-2-18.8-7-37.1-14.6-54.2   c6.5-1.7,12.8-3.9,18.9-6.7C375.8,110.7,377.3,110,378.6,109.3z M322,67.6c18.2,8.1,34.3,19.1,47.9,32.4l-0.6,0.3   c-6.1,2.8-12.6,5.1-19.2,6.6C342.6,92.6,333.2,79.4,322,67.6z"/>
</g>
</svg>